<svg width="216" height="216" viewBox="0 0 216 216" fill="none" xmlns="http://www.w3.org/2000/svg">
<g clip-path="url(#clip0_185_3160)">
<g clip-path="url(#paint0_angular_185_3160_clip_path)" data-figma-skip-parse="true"><g transform="matrix(0.000732274 0.102732 0.102497 -0.000725204 108.371 107.87)"><foreignObject x="-1149.55" y="-1149.55" width="2299.1" height="2299.1"><div xmlns="http://www.w3.org/1999/xhtml" style="background:conic-gradient(from 90deg,rgba(214, 178, 241, 1) 0deg,rgba(112, 56, 158, 1) 233.96deg,rgba(49, 15, 83, 1) 360deg);height:100%;width:100%;opacity:1"></div></foreignObject></g></g><path d="M106.535 -6.45241C106.535 -6.45241 124.04 47.9415 145.106 68.9762C166.265 90.1051 223.963 107.514 223.963 107.514C223.963 107.514 166.195 124.057 145.106 145.259C124.073 166.404 106.535 221.542 106.535 221.542C106.535 221.542 93.3557 166.266 73.108 145.259C51.4879 122.829 -6.59989 107.514 -6.59989 107.514C-6.59989 107.514 51.5499 91.6714 73.108 68.9762C93.0588 47.9731 106.535 -6.45241 106.535 -6.45241Z" data-figma-gradient-fill="{&#34;type&#34;:&#34;GRADIENT_ANGULAR&#34;,&#34;stops&#34;:[{&#34;color&#34;:{&#34;r&#34;:0.84266740083694458,&#34;g&#34;:0.69980615377426147,&#34;b&#34;:0.94574445486068726,&#34;a&#34;:1.0},&#34;position&#34;:0.0},{&#34;color&#34;:{&#34;r&#34;:0.44117647409439087,&#34;g&#34;:0.21960784494876862,&#34;b&#34;:0.61960786581039429,&#34;a&#34;:1.0},&#34;position&#34;:0.64988863468170166},{&#34;color&#34;:{&#34;r&#34;:0.19215686619281769,&#34;g&#34;:0.058823529630899429,&#34;b&#34;:0.32549020648002625,&#34;a&#34;:1.0},&#34;position&#34;:1.0}],&#34;transform&#34;:{&#34;m00&#34;:1.4645481109619141,&#34;m01&#34;:204.99357604980469,&#34;m02&#34;:5.1424293518066406,&#34;m10&#34;:205.46307373046875,&#34;m11&#34;:-1.4504078626632690,&#34;m12&#34;:5.8637108802795410},&#34;opacity&#34;:1.0,&#34;blendMode&#34;:&#34;NORMAL&#34;,&#34;stopsVar&#34;:[{&#34;color&#34;:{&#34;r&#34;:0.84266740083694458,&#34;g&#34;:0.69980615377426147,&#34;b&#34;:0.94574445486068726,&#34;a&#34;:1.0},&#34;position&#34;:0.0},{&#34;color&#34;:{&#34;r&#34;:0.44117647409439087,&#34;g&#34;:0.21960784494876862,&#34;b&#34;:0.61960786581039429,&#34;a&#34;:1.0},&#34;position&#34;:0.64988863468170166},{&#34;color&#34;:{&#34;r&#34;:0.19215686619281769,&#34;g&#34;:0.058823529630899429,&#34;b&#34;:0.32549020648002625,&#34;a&#34;:1.0},&#34;position&#34;:1.0}],&#34;visible&#34;:true}"/>
</g>
<defs>
<clipPath id="paint0_angular_185_3160_clip_path"><path d="M106.535 -6.45241C106.535 -6.45241 124.04 47.9415 145.106 68.9762C166.265 90.1051 223.963 107.514 223.963 107.514C223.963 107.514 166.195 124.057 145.106 145.259C124.073 166.404 106.535 221.542 106.535 221.542C106.535 221.542 93.3557 166.266 73.108 145.259C51.4879 122.829 -6.59989 107.514 -6.59989 107.514C-6.59989 107.514 51.5499 91.6714 73.108 68.9762C93.0588 47.9731 106.535 -6.45241 106.535 -6.45241Z"/></clipPath><clipPath id="clip0_185_3160">
<rect width="216" height="216" fill="white"/>
</clipPath>
</defs>
</svg>
